PathFileType	4	(X/Y/Z)	C:/Users/opensim2020/Desktop/walking_exp_matlab/subject01_walking07_straight_03.trc																																																																																																																															
DataRate	CameraRate	NumFrames	NumMarkers	Units	OrigDataRate	OrigDataStartFrame	OrigNumFrames																																																																																																																											
100	100	6	43	mm	100	2091	220																																																																																																																											
Frame#	Time	LFHD			RFHD			LBHD			RBHD			C7			T10			CLAV			STRN			RBAK			LSHO			LUPA			LELB			LFRM			LWRA			LWRB			LFIN			RSHO			RUPA			RELB			RFRM			RWRA			RWRB			RFIN			LASI			RASI			LPSI			RPSI			LTHI			LKNE			LTIB			LANK			LHEE			LTOE			RTHI			RKNE			RTIB			RANK			RHEE			RTOE			*39			*40			*41			*42		
		X1	Y1	Z1	X2	Y2	Z2	X3	Y3	Z3	X4	Y4	Z4	X5	Y5	Z5	X6	Y6	Z6	X7	Y7	Z7	X8	Y8	Z8	X9	Y9	Z9	X10	Y10	Z10	X11	Y11	Z11	X12	Y12	Z12	X13	Y13	Z13	X14	Y14	Z14	X15	Y15	Z15	X16	Y16	Z16	X17	Y17	Z17	X18	Y18	Z18	X19	Y19	Z19	X20	Y20	Z20	X21	Y21	Z21	X22	Y22	Z22	X23	Y23	Z23	X24	Y24	Z24	X25	Y25	Z25	X26	Y26	Z26	X27	Y27	Z27	X28	Y28	Z28	X29	Y29	Z29	X30	Y30	Z30	X31	Y31	Z31	X32	Y32	Z32	X33	Y33	Z33	X34	Y34	Z34	X35	Y35	Z35	X36	Y36	Z36	X37	Y37	Z37	X38	Y38	Z38	X39	Y39	Z39	X40	Y40	Z40	X41	Y41	Z41	X42	Y42	Z42	X43	Y43	Z43
																																																																																																																																		
56	0.55	-495.01477	1661.77576	1385.95105	-456.75522	1668.75403	1493.55383	-605.3407	1613.43787	1420.23767	-567.74646	1619.78906	1534.6958	-631.88959	1422.96399	1448.9082	-673.83197	1132.25732	1466.97546	-488.5191	1353.27173	1446.38696	-451.07956	1196.45972	1441.45251	-687.89905	1231.23145	1527.66626	-548.80237	1383.14197	1287.57751	-544.20728	1200.09973	1199.60852	-516.9953	1049.07922	1192.6283	-427.56406	973.22406	1175.1283	-303.45865	917.58221	1202.56152	-344.42868	883.52661	1176.38818	-266.34509	852.88239	1170.07605	-548.49048	1386.04077	1599.67285	-630.5285	1192.62134	1695.69482	-642.91772	1070.32117	1698.26697	-640.8335	952.26166	1733.3739	-583.83386	820.99695	1725.59753	-630.43646	832.47174	1760.14758	-611.10492	747.85815	1761.44666	-518.67004	922.33374	1347.44519	-491.87494	927.77417	1563.09534	-696.62994	936.86694	1426.39294	-676.84265	936.37518	1569.93652	-607.46857	593.88641	1313.59351	-646.84619	462.70612	1334.20227	-742.59076	296.49152	1341.11218	-810.41046	88.03243	1409.23792	-854.42145	71.4257	1467.38989	-670.91284	29.69442	1399.22607	-474.40491	600.84833	1635.13318	-411.61954	458.84598	1600.92981	-397.63895	286.67566	1611.13904	-333.98383	85.58936	1567.30469	-363.39478	32.80125	1516.14001	-188.76425	95.38087	1564.23291	-474.50134	1701.91101	1474.27222	1973.1908	1023.41797	-3101.89575	2012.67834	1022.04608	-3140.60107	NaN	NaN	NaN
57	0.56	-486.30206	1660.97778	1386.50525	-447.97351	1668.20105	1494.11304	-596.54315	1612.65051	1420.9967	-558.89624	1619.22009	1535.38525	-622.91687	1422.07837	1449.98083	-664.29016	1131.26782	1467.83826	-479.46478	1352.63855	1447.25464	-441.88495	1195.87097	1442.19019	-678.48578	1230.22131	1528.81287	-540.1264	1382.46863	1288.56519	-535.66388	1199.52954	1200.42188	-508.06927	1048.68286	1192.84448	-418.42206	973.0434	1175.16138	-294.18405	917.64777	1202.40405	-335.14688	883.53522	1176.17834	-256.93686	853.10962	1169.68652	-539.15692	1385.29468	1600.64343	-621.39337	1191.92371	1696.66492	-633.96796	1069.61182	1699.14185	-632.3288	951.66364	1734.38257	-575.91992	820.16919	1726.62354	-622.43408	831.8833	1761.29822	-603.34631	747.31598	1762.31604	-509.37766	921.62109	1347.56885	-481.72916	927.00983	1563.23401	-686.93958	936.02423	1427.29211	-666.73932	935.13611	1570.65308	-600.75604	593.97711	1313.36023	-641.16089	462.94455	1333.75208	-738.81879	297.98019	1340.71802	-809.4422	90.01958	1408.62854	-853.65186	74.37473	1466.6593	-670.72046	29.60449	1399.06995	-462.80347	600.45209	1634.50586	-401.36044	458.15442	1599.74133	-387.69223	285.83398	1609.86719	-323.94025	84.62765	1565.6626	-353.45584	31.77212	1514.48694	-178.7334	94.73293	1562.31506	-465.66608	1701.41687	1474.92114	1973.0293	1023.79803	-3101.99316	2012.61206	1022.09723	-3140.64697	NaN	NaN	NaN
58	0.57	-477.69348	1660.23877	1387.17542	-439.20993	1667.65369	1494.79138	-587.75891	1611.92798	1421.88257	-550.0058	1618.62598	1536.26416	-613.95667	1421.35693	1451.21265	-654.68658	1130.31848	1468.72717	-470.35248	1352.05042	1448.20459	-432.51898	1195.33557	1443.07397	-668.95428	1229.24622	1529.98486	-531.31433	1381.82202	1289.5918	-527.14691	1198.99695	1201.32056	-499.27972	1048.20142	1193.12659	-409.62674	972.7594	1175.23596	-285.25192	917.49475	1202.25696	-326.16693	883.35675	1175.96375	-248.02068	853.00934	1169.29248	-529.78705	1384.47083	1601.66907	-612.02118	1191.17688	1697.7583	-624.85071	1068.92859	1700.17236	-623.63666	950.95367	1735.37244	-567.62793	819.3009	1727.67493	-614.08539	831.07886	1762.28931	-595.32275	746.69342	1763.19824	-499.72549	920.94067	1347.83423	-471.40961	926.31848	1563.49268	-677.09833	935.1557	1428.21143	-656.56647	934.26215	1571.53223	-593.69379	593.9657	1313.27905	-634.78137	463.12372	1333.4657	-734.67249	299.51657	1340.21289	-808.5025	92.53667	1407.89526	-852.79193	77.4143	1465.70154	-670.6142	29.57547	1398.90173	-450.50583	600.01367	1633.82251	-390.76382	457.4422	1598.69824	-378.35339	284.62891	1608.62695	-316.16702	83.0907	1563.8241	-345.76382	30.1142	1512.11853	-170.95601	92.44514	1560.70911	-456.98138	1700.72693	1475.5094	1973.16052	1023.28864	-3101.90991	2012.5376	1022.01178	-3140.64648	NaN	NaN	NaN
59	0.58	-468.96375	1659.50879	1388.03552	-430.35498	1667.10681	1495.61609	-578.90186	1611.12878	1422.86084	-541.13489	1617.96802	1537.21301	-604.85583	1420.5033	1452.44885	-644.90753	1129.38379	1469.6084	-461.15921	1351.43298	1449.24841	-423.00827	1194.81726	1443.99951	-659.43103	1228.3772	1531.17065	-522.53595	1381.198	1290.73706	-518.79987	1198.54846	1202.32568	-490.78387	1047.78003	1193.56824	-401.06531	972.31812	1175.40613	-276.71524	917.01611	1202.21594	-317.69308	882.93549	1175.88428	-239.52367	852.70721	1169.0686	-520.4043	1383.6947	1602.77332	-602.5202	1190.31299	1698.93359	-615.51855	1068.20398	1701.29529	-614.63959	950.21503	1736.43982	-558.99554	818.41718	1728.80408	-605.4823	830.4231	1763.44116	-587.02216	745.85211	1764.20874	-489.85791	920.29926	1348.14709	-460.75876	925.74048	1563.90662	-667.08459	934.36035	1429.07556	-646.13202	932.99213	1572.19067	-586.13562	593.90936	1312.97217	-627.82983	463.17838	1333.15125	-730.24835	301.02124	1339.66992	-806.9762	94.55207	1406.9762	-851.71661	80.58818	1464.66577	-670.48413	29.56694	1398.70642	-440.77963	597.61823	1631.12976	-380.21826	456.6763	1597.64465	-369.58102	283.13226	1607.33203	-310.38635	80.8977	1561.77209	-340.39148	28.57557	1509.91003	-165.15126	88.9583	1559.36304	-448.18015	1700.16772	1476.32935	1973.10632	1023.37738	-3101.8999	2012.56555	1022.1153	-3140.79248	NaN	NaN	NaN
60	0.59	-460.14139	1658.94226	1389.09351	-421.5535	1666.55029	1496.59973	-570.10913	1610.37866	1424.02942	-532.22888	1617.31946	1538.29358	-595.78204	1419.54456	1453.7533	-634.89508	1128.31238	1470.4519	-451.85342	1350.88062	1450.41565	-413.371	1194.34485	1444.96643	-649.69373	1227.37415	1532.32983	-513.4762	1380.63416	1292.02917	-510.33261	1198.08691	1203.48169	-482.52036	1047.25513	1194.0144	-392.79874	971.88068	1175.63672	-268.4704	916.30719	1202.229	-309.63956	882.32007	1175.91833	-231.44829	851.91998	1168.82507	-510.99203	1382.92126	1604.0376	-592.77948	1189.38733	1700.26038	-605.91638	1067.28491	1702.41382	-605.27673	949.42896	1737.62036	-549.98254	817.44977	1729.97327	-596.40961	829.51001	1764.54761	-578.29309	744.93073	1765.40845	-479.85696	919.65826	1348.50439	-450.05496	925.08252	1564.26807	-656.75922	933.60419	1429.99609	-635.60516	931.8974	1573.05566	-578.0116	593.71259	1312.72852	-620.47961	463.22925	1332.72351	-725.37628	302.59158	1339.06409	-805.77728	97.30533	1405.97961	-850.57239	84.21196	1463.53003	-670.40247	29.58199	1398.51599	-427.97241	597.27167	1630.31958	-369.45541	455.68259	1596.57104	-361.62366	281.39658	1605.98706	-306.45248	78.38234	1559.8075	-336.90497	27.03683	1507.97791	-161.02118	84.46162	1558.14734	-439.33936	1699.70105	1477.4342	1972.98267	1023.49243	-3101.87134	2012.55823	1022.12451	-3140.66406	NaN	NaN	NaN
61	0.6	-451.35977	1658.27869	1390.22656	-412.68497	1665.9281	1497.7229	-561.30078	1609.62183	1425.24695	-523.27417	1616.63342	1539.52795	-586.54437	1418.53516	1455.1958	-624.77942	1127.23694	1471.44458	-442.44653	1350.3396	1451.71997	-403.43893	1193.94971	1446.0647	-639.85645	1226.24353	1533.58325	-504.39163	1379.99182	1293.4104	-501.84357	1197.58606	1204.66699	-474.40454	1046.8822	1194.61584	-384.83105	971.25116	1176.00916	-260.6413	915.32092	1202.30359	-301.89056	881.51434	1175.88635	-223.82054	851.09174	1168.78967	-501.62003	1382.08997	1605.38525	-582.92578	1188.33142	1701.61365	-596.17188	1066.37476	1703.65198	-595.67499	948.56268	1738.80884	-540.62885	816.4267	1731.19604	-587.09589	828.66724	1765.80151	-569.11584	743.98041	1766.56531	-469.56491	918.92975	1348.93469	-439.02136	924.38239	1564.70239	-646.20728	932.88843	1431.01074	-624.54651	930.56622	1573.90356	-569.41077	593.4115	1312.51965	-612.56158	463.14063	1332.21716	-720.05164	304.21109	1338.37122	-804.02185	99.80255	1404.83154	-849.22974	88.0302	1462.19763	-670.33118	29.53294	1398.33582	-412.86374	598.5368	1630.93518	-358.83154	454.56842	1595.58984	-354.33585	279.43643	1604.81201	-303.28018	75.85517	1557.95789	-335.81247	26.42616	1506.74866	-158.26978	79.1887	1556.68579	-430.57626	1698.98486	1478.45776	1973.15222	1023.45483	-3101.9519	2012.56421	1022.0918	-3140.75073	NaN	NaN	NaN
